<svg id="Capa_1" data-name="Capa 1" xmlns="http://www.w3.org/2000/svg" viewBox="0 0 74.12 308.14"><defs><style>.cls-1{fill:#1a78a6;}.cls-2{fill:#d7ad79;}.cls-3{fill:#e6cda7;}.cls-4{fill:#09202e;}.cls-5{fill:#e6cfa7;}.cls-6{fill:#e74225;}</style></defs><path class="cls-1" d="M138.08,435.72c-.08-.67,0-1.25,1.09-4.45s1.64-4.68,2.23-5.3a6.35,6.35,0,0,1,6.16-2c.46.12,2,.55,2.45,1.76s-.82,1.94-1.32,4.4c-.39,1.79-.24,3.67.19,3.74.66.16,1.37-4,2.65-4,.9,0,2.11,2,2.11,3.93a3.84,3.84,0,0,1-.35,1.6c-.78,1.6-2.46,1.13-3.94,2.85-.78.9-1.29,2.14-1.33,6.86,0,3.63.24,4.83.43,8.62.31,5.84-.23,5.84.24,9.47a42.68,42.68,0,0,0,2,8.38c1.1,3.59,3,8.77,3.75,8.62.46-.12-.12-2.65.19-7.72.12-1.8.27-2.46.47-4.21a88.62,88.62,0,0,0,.51-9.36L189,460.63c-.47,6.9-.75,9.12-.43,13.45a53.6,53.6,0,0,0,3.74,17.66c2,4.91,3.66,6.47,4.64,11.5.54,2.73.47,4.44.47,8.58-.08,10.25.27,7.25.19,17.46-.08,9-.12,13.65-.86,19a56.34,56.34,0,0,0-1.32,7.29c-.24,3,.08,4.29,0,8.38,0,2.07-.2,3.66-.47,6.86-.58,7.25-.9,10.92-1.52,13.68-1.25,5.38-2.5,6.71-2,10.37.2,1.6.51,1.8,1.09,5.07a28,28,0,0,1,.67,7.49c-.16,2.38-.32,4.36-1.76,6.2a5.86,5.86,0,0,1-4,2.41,5.18,5.18,0,0,1-4.21-1.56,6.89,6.89,0,0,1-1.52-4.83c-.07-2.26.71-3.12,0-4.21s-1.56-.7-2.22-1.75c-.43-.67-.27-1.17-.23-3.32.15-3.66-.2-3.78.23-4.4.9-1.41,2.46-.9,3.55-2.42.35-.51.55-1.09.66-2.89a39.18,39.18,0,0,0-.23-7.05c-.08-.94-.31-3.2-.43-5.54a60.53,60.53,0,0,1-.23-6.82c0-1.75.27-3.59.66-7.29.15-1.33.23-2,.43-4,.27-2.49.43-3.78.47-4.64V550a28.62,28.62,0,0,1,0-3.12c0-1.67.07-2.53.19-4.64,0-.54.16-2.88.23-4.83,0-1.6,0-1.68,0-6.39v-1.56a26.94,26.94,0,0,0,0-9.28c-.31,0-.39.23-.39.58-.54-.62-2.37-2.92-3.35-3.94a40.39,40.39,0,0,0-3.86-3.47c-3.23-2.33-9.12-1.24-11.62-.81a1.28,1.28,0,0,0,.24-.74c0-1.17-1.8-1.95-4.64-3.32s-3.59-1.17-7.06-2.61c-3.9-1.68-4.71-2.61-5.07-3.12a13.81,13.81,0,0,1-1.55-4.17c-.55-2-.43-2.22-1.1-5.07-.39-1.64-.74-2.88-1.09-4.21-.47-1.68-.86-2.92-1.13-3.74-.66-2.18-.9-2.77-1.52-4.87-.58-1.8-.54-1.76-1.32-4.41-1.25-4.13-1.33-4.09-1.56-5.07a43.26,43.26,0,0,1-.67-6.39,56,56,0,0,1-.19-5.73c.08-2.85.35-3,.66-6.86.2-2.77,0-2.23.2-6.4s.39-4.64,0-6C139.21,437.78,138.24,437.55,138.08,435.72Z" transform="translate(-138.06 -307.86)"/><path class="cls-1" d="M155.08,429.28c-.08-2.45,0-1.95,0-9.47,0-9.86-.12-9.71,0-13a77.71,77.71,0,0,1,.86-11.93c.62-3.43,1.13-4.4,1.79-8.15a76.81,76.81,0,0,0,.86-9.47c.31-6.86-.08-7.49,0-17.66.11-9.79.5-8.34.23-10.6-.31-2.77-.86-4.76.24-7.06.7-1.48,1.56-2,2.18-4,0-.15.12-.31.15-.47l10.49,0a29.67,29.67,0,0,0-.93,4.17,52.11,52.11,0,0,0-.2,11.93c.47,9.63-.93,9.48-1.13,22.3a199.28,199.28,0,0,0,1.13,23.39c.74,7.18,1.29,8.7,1.76,15.64.58,8.46.35,14.42.42,15.67a18.05,18.05,0,0,0-2.65.78,29.41,29.41,0,0,0-3.35,1.6c-1.91,1-2.61,1.48-4,2.22-1.13.62-5.53,2.65-7.64,3.51h0c0-1.91,0-3.28-.07-4.87C155.16,432.6,155.12,431.19,155.08,429.28Z" transform="translate(-138.06 -307.86)"/><path class="cls-1" d="M155.51,455.56c-.12-4.76-.47-5.15-.43-9.71,0-2.84.16-2.84.19-6.2v-.93h0c2.11-.86,6.51-2.89,7.64-3.51,1.37-.74,2.07-1.21,4-2.22a29.41,29.41,0,0,1,3.35-1.6,18.05,18.05,0,0,1,2.65-.78c0,.16,0,.23,0,.23s0-.07,0-.23a5.1,5.1,0,0,1,2.19.12,15.06,15.06,0,0,1,1.83.89c1.91,1,3,1.56,4.4,2.46a26.43,26.43,0,0,1,2.73,2c.7.62,1.06.93,2.3,2.18.67.66,2.65,2.38,3.63,3.28-.27,8.46-.86,16.84-1,19.1L155.59,459C155.59,457.63,155.55,456.46,155.51,455.56Z" transform="translate(-138.06 -307.86)"/><path class="cls-1" d="M156.4,527.49c-.07-1.87-.19-6.71,2.85-10.37,2.46-2.89,5.54-3.43,6.39-4.56,2.5-.43,8.39-1.52,11.62.81a40.39,40.39,0,0,1,3.86,3.47c1,1,2.81,3.32,3.35,3.94,0,.59.39,1.52.39,2.07v6.63a19.58,19.58,0,0,1-2.22,6.39,13.46,13.46,0,0,1-5.73,5.77,14,14,0,0,1-5.5,1.29,13,13,0,0,1-7.75-1.29,12.78,12.78,0,0,1-4.84-5.54A18.47,18.47,0,0,1,156.4,527.49Z" transform="translate(-138.06 -307.86)"/><path class="cls-1" d="M161.47,326c-.66-5.61-1.83-6.55-.89-8.38s3-2.46,4.87-3.08c.74-.23,5.54-1.79,7.29.24.86,1,.47,2.33.19,4.63-.74,6.09.75,6.44.24,12.32a17.78,17.78,0,0,1-.55,3.4c-.19.81-.47,1.52-.74,2.37l-10.49,0a14.49,14.49,0,0,0,.32-3.74C161.67,329.72,161.67,327.69,161.47,326Z" transform="translate(-138.06 -307.86)"/><path class="cls-1" d="M173.17,342.58a13.85,13.85,0,0,1,.08-7.37c.74-2.76,2.14-4.87,3.43-5,3.35-.31,8.81,8.93,8.61,17.43,0,2.34-.47,2.92-.66,7.29l-8.69-.31c.15-4.1-.2-5.89-.59-7.21C174.57,344.73,173.79,344.65,173.17,342.58Z" transform="translate(-138.06 -307.86)"/><path class="cls-1" d="M175.16,430.73a5.1,5.1,0,0,0-2.19-.12c.24-1.64.55-11.5,1.29-26.24.19-3.58.43-7.48.47-12.82v-16.1c0-7.72-.08-7.45,0-8.62.19-4.56.7-4.44,1.09-9.9,0-.86.12-1.6.12-2.3l8.69.31a72,72,0,0,0,.47,11.27c.58,5.53,1.13,6.2,2,11.89.23,1.32.54,3.7,1.32,15.9.43,6,.63,9.44.9,14.78.66,13.29,1,20,.9,27.6,0,1.68-.08,3.43-.12,5.15-1-.9-3-2.62-3.63-3.28-1.24-1.25-1.6-1.56-2.3-2.18a26.43,26.43,0,0,0-2.73-2c-1.44-.9-2.49-1.44-4.4-2.46A15.06,15.06,0,0,0,175.16,430.73Z" transform="translate(-138.06 -307.86)"/><line class="cls-2" x1="36.47" y1="185.42" x2="36.47" y2="153.81"/><path class="cls-2" d="M174.49,493.28l-.27-15.81c0-2.63-.12-5.26-.07-7.9s.12-5.27.34-7.9h.07c.22,2.63.27,5.27.34,7.9s0,5.27-.08,7.9l-.26,15.81Z" transform="translate(-138.06 -307.86)"/><path class="cls-2" d="M191.27,506.41a20.83,20.83,0,0,0-5.74-8.39A10.06,10.06,0,0,1,191.27,506.41Z" transform="translate(-138.06 -307.86)"/><path class="cls-2" d="M165.64,491.66c0-1,0-1.92-.07-2.85a7.63,7.63,0,0,0-.63-2.63,3.57,3.57,0,0,0-1.83-1.78,8.9,8.9,0,0,0-2.72-.67,5.84,5.84,0,0,1,2.93.12,4.13,4.13,0,0,1,1.36.75,4.21,4.21,0,0,1,.93,1.25,6.5,6.5,0,0,1,.54,2.95A10.61,10.61,0,0,1,165.64,491.66Z" transform="translate(-138.06 -307.86)"/><path class="cls-3" d="M152.6,429.82c-.07-.66,0-1.25,1.09-4.44s1.64-4.68,2.23-5.31a6.35,6.35,0,0,1,6.16-1.94c.46.11,2,.54,2.45,1.75s-.82,1.95-1.32,4.41c-.39,1.79-.24,3.66.19,3.74.66.15,1.37-4,2.65-4,.9,0,2.11,2,2.11,3.94a3.91,3.91,0,0,1-.35,1.6c-.78,1.6-2.46,1.13-3.94,2.84-.78.9-1.29,2.15-1.33,6.86,0,3.63.24,4.84.43,8.62.31,5.85-.23,5.85.24,9.47a42.05,42.05,0,0,0,2,8.39c1.09,3.58,3,8.77,3.74,8.61a68.94,68.94,0,0,1,11.38,31.11c-.43-.93-2.06-1.68-4.56-2.88-2.77-1.29-3.59-1.17-7.06-2.62-3.89-1.67-4.71-2.61-5.06-3.11-.63-.86-.94-2-1.56-4.18-.55-2-.43-2.22-1.1-5.06-.39-1.64-.74-2.89-1.09-4.21-.46-1.68-.85-2.93-1.13-3.75-.66-2.18-.89-2.76-1.52-4.87-.58-1.79-.54-1.75-1.32-4.41-1.25-4.13-1.33-4.09-1.56-5.06a45.13,45.13,0,0,1-.67-6.4,55.94,55.94,0,0,1-.19-5.73c.08-2.84.35-3,.66-6.86.2-2.77,0-2.22.2-6.39s.39-4.64,0-6C153.73,431.89,152.76,431.65,152.6,429.82Z" transform="translate(-138.06 -307.86)"/><path class="cls-4" d="M169.05,469.78c0-.9,0-1.95.08-3.12l.16-1.67c0-.47.12-.94.15-1.49a7.28,7.28,0,0,0,.16-1.05,24.77,24.77,0,0,0,.23-2.57v-.08c.2-2.53.28-4.83.28-6.7l33.45,1.63c0,.63-.08,1.17-.12,1.72-.08,1.09-.12,2-.2,2.92,0,.43,0,.82-.07,1.21,0,.74-.08,1.44-.12,2.11v.07l0,.59v.43a42,42,0,0,0,.12,4.4c.08.82.11,1.72.23,2.69a52.09,52.09,0,0,0,1.21,7.8.24.24,0,0,0,0,.16,44.63,44.63,0,0,0,2.26,7c.12.24.2.47.31.7a.15.15,0,0,0,0,.12,52.77,52.77,0,0,0-7.83,27.64c-5.85-8.22-12.29-9.94-19-8.38a1.63,1.63,0,0,0-.08-.43,68.94,68.94,0,0,0-11.38-31.11C169.29,474.3,169.05,472.78,169.05,469.78Z" transform="translate(-138.06 -307.86)"/><path class="cls-3" d="M169.29,465l-.16,1.67C169.17,466,169.21,465.49,169.29,465Z" transform="translate(-138.06 -307.86)"/><path class="cls-4" d="M169.6,413.92c0-6.59,0-8.7,0-10.37,0-.82,0-1.56,0-2.66.12-3.47.16-5.84.35-8,0-.27,0-.5.08-.78l.23-1.79c0-.43.12-.86.2-1.33l.47-2.18.39-1.56c.07-.35.15-.7.23-1.09.23-.9.47-1.91.7-3.31a2.33,2.33,0,0,0,.08-.59s0-.08,0-.11a57.56,57.56,0,0,0,.66-6.59c0-.67.08-1.41.12-2.19,0-.5,0-1,0-1.44l.08-1.25,11,0c0,.43,0,.86,0,1.33,0,.93,0,3,0,5.85,0,.46,0,.93,0,1.4,0,2.22.16,4.79.35,7.68,0,.58.08,1.13.12,1.71.11,2.15.31,4.37.58,6.75.08.9.2,1.71.28,2.46.11,1.09.23,2.06.35,3l.89,7.52a1.87,1.87,0,0,1,0,.47l.39,5.77a7.31,7.31,0,0,1,0,.94l.16,7.21v.15c0,2,0,3.32,0,3.82a17.82,17.82,0,0,0-2.66.78,29.41,29.41,0,0,0-3.35,1.6c-1.91,1-2.61,1.48-4,2.22-1.14.63-5.54,2.66-7.65,3.51h0V432c0-2.54-.08-4.18-.16-7.18,0-.43,0-.89,0-1.4v-9.47Z" transform="translate(-138.06 -307.86)"/><path class="cls-5" d="M169.6,423.39c-.08-2.22,0-2,0-7.56Z" transform="translate(-138.06 -307.86)"/><path class="cls-4" d="M170,449.66c-.12-4.75-.47-5.14-.43-9.7,0-2.85.16-2.85.2-6.2l0,1s31.78-1.71,31.11-2.37h3.71c-.2,9.47-.9,19.8-1.09,22.37l-33.45-1.63C170.11,451.73,170.07,450.56,170,449.66Z" transform="translate(-138.06 -307.86)"/><path class="cls-4" d="M169.8,433.76v-.94h0c2.11-.85,6.51-2.88,7.65-3.51,1.36-.74,2.06-1.2,4-2.22a29.41,29.41,0,0,1,3.35-1.6,17.82,17.82,0,0,1,2.66-.78q-.06.24,0,.24s0-.08,0-.24a5.44,5.44,0,0,1,2.19.12,15.91,15.91,0,0,1,1.83.9c1.91,1,3,1.56,4.41,2.45a29.18,29.18,0,0,1,2.72,2c.71.63,1.06.94,2.3,2.19.67.66-31.11,2.37-31.11,2.37Z" transform="translate(-138.06 -307.86)"/><path class="cls-5" d="M170.26,390.29l-.23,1.79C170.11,391.5,170.15,390.91,170.26,390.29Z" transform="translate(-138.06 -307.86)"/><path class="cls-5" d="M170.93,386.78l-.47,2.18C170.61,388.11,170.77,387.41,170.93,386.78Z" transform="translate(-138.06 -307.86)"/><path class="cls-6" d="M170.93,521.59c-.08-1.87-.2-6.7,2.84-10.37,2.46-2.88,5.54-3.43,6.4-4.56,2.49-.43,8.38-1.52,11.61.82a39,39,0,0,1,3.86,3.47c1,1,2.81,3.31,3.36,3.94,0,.58.39,1.52.39,2.06v6.63a19.68,19.68,0,0,1-2.23,6.39,13.41,13.41,0,0,1-5.73,5.77,13.87,13.87,0,0,1-5.49,1.29,11.29,11.29,0,0,1-12.6-6.82A18.44,18.44,0,0,1,170.93,521.59Z" transform="translate(-138.06 -307.86)"/><path class="cls-5" d="M171.32,385.22l-.39,1.56A15.46,15.46,0,0,1,171.32,385.22Z" transform="translate(-138.06 -307.86)"/><path class="cls-5" d="M173.11,355.63v-1.95c0-.93,0-1.71,0-2.45Z" transform="translate(-138.06 -307.86)"/><path class="cls-4" d="M173.15,360.08c0-1.25,0-2.69,0-4.45l0-4.4c0-1.17,0-2.11.08-2.89l.07-1.71c.08-1.17.12-1.72.12-2.15l11.66-.43c0,.67,0,1.33.08,2s.07,1.13.11,1.68v.51c.08.85.08,1.63.08,2.33l-.08,3.32a3.44,3.44,0,0,1,0,.66l-.58,5.42,0,1a.68.68,0,0,0,0,.28c-.19,1.91-.35,4.25-.39,7.48l-11,0v-1.59c0-1.53,0-2.81,0-4.41Z" transform="translate(-138.06 -307.86)"/><path class="cls-5" d="M173.23,368.65l-.08,1.25c0-1.09.08-2,.08-2.84Z" transform="translate(-138.06 -307.86)"/><path class="cls-5" d="M173.19,362.65c0-.78,0-1.6,0-2.57Z" transform="translate(-138.06 -307.86)"/><path class="cls-5" d="M173.3,346.63l-.07,1.71C173.23,347.64,173.27,347.09,173.3,346.63Z" transform="translate(-138.06 -307.86)"/><path class="cls-5" d="M173.34,343.08c-.31-2.77-.85-4.76.24-7.06.7-1.48,1.56-2,2.18-4a12.28,12.28,0,0,0,.47-4.21c0-4,0-6-.24-7.72-.66-5.62-1.83-6.55-.89-8.38s3-2.46,4.87-3.08c.74-.24,5.54-1.8,7.29.23.86,1,.47,2.34.2,4.64-.75,6.08.74,6.43.23,12.32a17.8,17.8,0,0,1-.55,3.39,43.68,43.68,0,0,0-1.67,6.55,38.58,38.58,0,0,0-.39,8.26l-11.66.43A6.16,6.16,0,0,0,173.34,343.08Z" transform="translate(-138.06 -307.86)"/><path class="cls-3" d="M180.17,506.66a1.32,1.32,0,0,0,.23-.74c6.7-1.56,13.14.16,19,8.38-.32,0-.39.24-.39.59-.55-.63-2.38-2.93-3.36-3.94a39,39,0,0,0-3.86-3.47C188.55,505.14,182.66,506.23,180.17,506.66Z" transform="translate(-138.06 -307.86)"/><path class="cls-5" d="M184.61,360.93l0-1,.58-5.42C185.08,356.69,184.84,358.4,184.61,360.93Z" transform="translate(-138.06 -307.86)"/><path class="cls-5" d="M185.27,353.88l.08-3.32A28.73,28.73,0,0,1,185.27,353.88Z" transform="translate(-138.06 -307.86)"/><path class="cls-5" d="M186.79,406.35l-.89-7.52C186.25,401.36,186.56,403.31,186.79,406.35Z" transform="translate(-138.06 -307.86)"/><path class="cls-5" d="M187.22,412.59l-.39-5.77c.08.66.16,1.4.2,2.22C187.1,410.29,187.18,411.46,187.22,412.59Z" transform="translate(-138.06 -307.86)"/><path class="cls-5" d="M187.42,420.74l-.16-7.21C187.38,416.41,187.42,418.87,187.42,420.74Z" transform="translate(-138.06 -307.86)"/><path class="cls-5" d="M187.69,336.69a13.85,13.85,0,0,1,.08-7.37c.74-2.77,2.14-4.88,3.43-5,3.35-.31,8.81,8.93,8.61,17.42,0,2.34-.46,2.93-.66,7.29,0,1.17-.08,3,0,5.66L190,355l-.55,3.82c.24-2.57.63-3.31.94-7.76.39-5.81,0-7.95-.47-9.51C189.09,338.83,188.31,338.75,187.69,336.69Z" transform="translate(-138.06 -307.86)"/><path class="cls-4" d="M204,407c.54,10.65.81,16.65.7,23.47,0,.63,0,1.25,0,1.88h-3.71c-1.24-1.25-1.59-1.56-2.3-2.19a29.18,29.18,0,0,0-2.72-2c-1.45-.89-2.5-1.44-4.41-2.45a15.91,15.91,0,0,0-1.83-.9,5.44,5.44,0,0,0-2.19-.12c.12-.58.2-2.22.32-4.79.11-2.77.27-6.63.5-11.35l.12-3c.12-2.22.23-4.6.35-7.09.08-1.48.16-3,.24-4.72l.07-1.33v-.74c.08-1.79.16-3.78.16-6v-16.1c0-1.52,0-2.73,0-3.7v-2.26l.12-4.14c0-.23,0-.46.07-.66L190,355l9.24-.27c0,1.6.2,3.47.43,5.61s.43,3.47.66,4.72l.12.58v.16l1.17,6.43c0,.08,0,.16,0,.27l.74,7.76a1.6,1.6,0,0,1,0,.43l.35,5.26.86,13v.27c.07,1.13.11,2.3.19,3.59v.11Z" transform="translate(-138.06 -307.86)"/><path class="cls-5" d="M188.43,405.57l-.12,3C188.35,407.6,188.39,406.63,188.43,405.57Z" transform="translate(-138.06 -307.86)"/><path class="cls-5" d="M189.09,392.43l-.07,1.33c0-.66.07-1.33.07-2.07Z" transform="translate(-138.06 -307.86)"/><path class="cls-5" d="M189.21,363.59c0-1.76,0-1.95,0-2.66,0-.54.08-1.05.08-1.48Z" transform="translate(-138.06 -307.86)"/><path class="cls-3" d="M194.08,597.73c-.43-.66-.27-1.17-.23-3.31.16-3.67-.2-3.79.23-4.41.9-1.4,2.46-.9,3.55-2.42a3.6,3.6,0,0,0,.55-1.75l7.75.58a12.08,12.08,0,0,0,.08,2.5c.2,1.6.51,1.79,1.09,5.07a27.89,27.89,0,0,1,.67,7.48c-.16,2.38-.32,4.37-1.76,6.2a5.87,5.87,0,0,1-4,2.42,5.22,5.22,0,0,1-4.21-1.56,6.87,6.87,0,0,1-1.52-4.84c-.08-2.26.7-3.11,0-4.21S194.75,598.78,194.08,597.73Z" transform="translate(-138.06 -307.86)"/><path class="cls-3" d="M197.63,572.12a63.17,63.17,0,0,1-.23-6.83c0-1.75.27-3.58.66-7.29.16-1.32.23-2,.43-4,.27-2.5.43-3.78.47-4.64v-5.26a28.51,28.51,0,0,1,0-3.12c0-1.68.07-2.54.19-4.64,0-.55.16-2.89.24-4.84,0-1.6,0-1.67,0-6.39v-1.56a27.24,27.24,0,0,0,0-9.28,52.77,52.77,0,0,1,7.83-27.64c1.87,4.29,3.35,5.93,4.29,10.68.55,2.73.47,4.45.47,8.58-.08,10.25.27,7.25.19,17.47-.08,9-.11,13.64-.86,18.94a56.68,56.68,0,0,0-1.32,7.29c-.23,3,.08,4.29,0,8.38,0,2.07-.2,3.67-.47,6.87-.58,7.25-.9,10.91-1.52,13.68-.93,4-1.83,5.73-2.07,7.87l-7.75-.58c0-.31.07-.66.11-1.13a39.26,39.26,0,0,0-.23-7.06C198,576.72,197.75,574.46,197.63,572.12Z" transform="translate(-138.06 -307.86)"/><path class="cls-5" d="M200.4,365.77v-.16c.35,1.8.7,3.39,1.17,6.59Z" transform="translate(-138.06 -307.86)"/><path class="cls-5" d="M202.35,380.23l-.74-7.76C201.76,373.45,202,375.16,202.35,380.23Z" transform="translate(-138.06 -307.86)"/><path class="cls-5" d="M202.74,385.92l-.35-5.26C202.5,382.1,202.62,383.86,202.74,385.92Z" transform="translate(-138.06 -307.86)"/><path class="cls-5" d="M203.6,398.91l-.86-13c.08.71.11,1.41.15,2.19C203.21,392.51,203.4,395.51,203.6,398.91Z" transform="translate(-138.06 -307.86)"/><path class="cls-3" d="M203,463.78v-.43l0-.59C203.05,463.11,203,463.47,203,463.78Z" transform="translate(-138.06 -307.86)"/><path class="cls-5" d="M204,407l-.2-4.13C203.87,404.32,204,405.69,204,407Z" transform="translate(-138.06 -307.86)"/></svg>