<svg id="Capa_1" data-name="Capa 1" xmlns="http://www.w3.org/2000/svg" viewBox="0 0 74.12 308.14"><defs><style>.cls-1{fill:#1a78a6;}.cls-2{fill:#d7ad79;}.cls-3{fill:#e6cda7;}.cls-4{fill:#09202e;}.cls-5{fill:#e6cfa7;}.cls-6{fill:#e74225;}</style></defs><path class="cls-1" d="M212.17,435.72c.08-.67,0-1.25-1.09-4.45s-1.64-4.68-2.22-5.3a6.36,6.36,0,0,0-6.16-2c-.47.12-2,.55-2.46,1.76s.82,1.94,1.33,4.4c.39,1.79.23,3.67-.2,3.74-.66.16-1.36-4-2.65-4-.89,0-2.1,2-2.1,3.93a3.69,3.69,0,0,0,.35,1.6c.78,1.6,2.45,1.13,3.94,2.85.78.9,1.28,2.14,1.32,6.86,0,3.63-.23,4.83-.43,8.62-.31,5.84.24,5.84-.23,9.47a42,42,0,0,1-2,8.38c-1.09,3.59-3,8.77-3.74,8.62-.47-.12.12-2.65-.2-7.72-.11-1.8-.27-2.46-.46-4.21a88.62,88.62,0,0,1-.51-9.36l-33.45,1.64c.47,6.9.74,9.12.43,13.45a53.6,53.6,0,0,1-3.74,17.66c-2,4.91-3.67,6.47-4.64,11.5-.55,2.73-.47,4.44-.47,8.58.08,10.25-.27,7.25-.2,17.46.08,9,.12,13.65.86,19a57.79,57.79,0,0,1,1.33,7.29c.23,3-.08,4.29,0,8.38,0,2.07.19,3.66.46,6.86.59,7.25.9,10.92,1.53,13.68,1.24,5.38,2.49,6.71,2,10.37-.19,1.6-.5,1.8-1.09,5.07a28,28,0,0,0-.66,7.49c.16,2.38.31,4.36,1.75,6.2a5.88,5.88,0,0,0,4,2.41,5.15,5.15,0,0,0,4.21-1.56,6.89,6.89,0,0,0,1.52-4.83c.08-2.26-.7-3.12,0-4.21s1.56-.7,2.22-1.75c.43-.67.28-1.17.24-3.32-.16-3.66.19-3.78-.24-4.4-.89-1.41-2.45-.9-3.54-2.42-.36-.51-.55-1.09-.67-2.89a39.07,39.07,0,0,1,.24-7.05c.07-.94.31-3.2.43-5.54a63,63,0,0,0,.23-6.82c0-1.75-.27-3.59-.66-7.29-.16-1.33-.24-2-.43-4-.28-2.49-.43-3.78-.47-4.64V550a28.62,28.62,0,0,0,0-3.12c0-1.67-.08-2.53-.2-4.64,0-.54-.15-2.88-.23-4.83,0-1.6,0-1.68,0-6.39v-1.56a26.94,26.94,0,0,1,0-9.28c.31,0,.39.23.39.58.55-.62,2.38-2.92,3.35-3.94a41.66,41.66,0,0,1,3.86-3.47c3.24-2.33,9.13-1.24,11.62-.81a1.27,1.27,0,0,1-.23-.74c0-1.17,1.79-1.95,4.64-3.32s3.58-1.17,7-2.61c3.9-1.68,4.72-2.61,5.07-3.12a13.76,13.76,0,0,0,1.56-4.17c.55-2,.43-2.22,1.09-5.07.39-1.64.74-2.88,1.09-4.21.47-1.68.86-2.92,1.13-3.74.67-2.18.9-2.77,1.52-4.87.59-1.8.55-1.76,1.33-4.41,1.25-4.13,1.32-4.09,1.56-5.07a43.71,43.71,0,0,0,.66-6.39,56.62,56.62,0,0,0,.2-5.73c-.08-2.85-.35-3-.67-6.86-.19-2.77,0-2.23-.19-6.4s-.39-4.64,0-6C211,437.78,212,437.55,212.17,435.72Z" transform="translate(-138.07 -307.86)"/><path class="cls-1" d="M195.18,429.28c.07-2.45,0-1.95,0-9.47,0-9.86.11-9.71,0-13a79,79,0,0,0-.86-11.93c-.63-3.43-1.13-4.4-1.8-8.15a75.57,75.57,0,0,1-.85-9.47c-.32-6.86.07-7.49,0-17.66-.12-9.79-.51-8.34-.24-10.6.31-2.77.86-4.76-.23-7.06-.7-1.48-1.56-2-2.18-4,0-.15-.12-.31-.16-.47l-10.49,0a29.4,29.4,0,0,1,.94,4.17,51.48,51.48,0,0,1,.19,11.93c-.46,9.63.94,9.48,1.13,22.3a199.28,199.28,0,0,1-1.13,23.39c-.74,7.18-1.28,8.7-1.75,15.64-.59,8.46-.35,14.42-.43,15.67a17.7,17.7,0,0,1,2.65.78,27.87,27.87,0,0,1,3.35,1.6c1.91,1,2.62,1.48,4,2.22,1.13.62,5.54,2.65,7.64,3.51h0c0-1.91,0-3.28.08-4.87C195.1,432.6,195.14,431.19,195.18,429.28Z" transform="translate(-138.07 -307.86)"/><path class="cls-1" d="M194.75,455.56c.11-4.76.46-5.15.43-9.71,0-2.84-.16-2.84-.2-6.2v-.93h0c-2.1-.86-6.51-2.89-7.64-3.51-1.36-.74-2.07-1.21-4-2.22a27.87,27.87,0,0,0-3.35-1.6,17.7,17.7,0,0,0-2.65-.78c0,.16,0,.23,0,.23s0-.07,0-.23a5.06,5.06,0,0,0-2.18.12,15.06,15.06,0,0,0-1.83.89c-1.91,1-3,1.56-4.41,2.46a27.55,27.55,0,0,0-2.73,2c-.7.62-1,.93-2.3,2.18-.66.66-2.65,2.38-3.62,3.28.27,8.46.85,16.84,1,19.1L194.67,459C194.67,457.63,194.71,456.46,194.75,455.56Z" transform="translate(-138.07 -307.86)"/><path class="cls-1" d="M193.85,527.49c.08-1.87.19-6.71-2.85-10.37-2.45-2.89-5.53-3.43-6.39-4.56-2.49-.43-8.38-1.52-11.62.81a41.66,41.66,0,0,0-3.86,3.47c-1,1-2.8,3.32-3.35,3.94,0,.59-.39,1.52-.39,2.07v6.63a19.58,19.58,0,0,0,2.22,6.39,13.52,13.52,0,0,0,5.73,5.77,14.12,14.12,0,0,0,5.5,1.29,13,13,0,0,0,7.76-1.29,12.82,12.82,0,0,0,4.83-5.54A18.34,18.34,0,0,0,193.85,527.49Z" transform="translate(-138.07 -307.86)"/><path class="cls-1" d="M188.78,326c.66-5.61,1.83-6.55.9-8.38s-3-2.46-4.87-3.08c-.75-.23-5.54-1.79-7.29.24-.86,1-.47,2.33-.2,4.63.74,6.09-.74,6.44-.23,12.32a17.91,17.91,0,0,0,.54,3.4c.2.81.47,1.52.74,2.37l10.49,0a15,15,0,0,1-.31-3.74C188.59,329.72,188.59,327.69,188.78,326Z" transform="translate(-138.07 -307.86)"/><path class="cls-1" d="M177.09,342.58a14,14,0,0,0-.08-7.37c-.74-2.76-2.15-4.87-3.43-5-3.35-.31-8.81,8.93-8.62,17.43,0,2.34.47,2.92.66,7.29l8.7-.31c-.16-4.1.19-5.89.58-7.21C175.68,344.73,176.46,344.65,177.09,342.58Z" transform="translate(-138.07 -307.86)"/><path class="cls-1" d="M175.1,430.73a5.06,5.06,0,0,1,2.18-.12c-.23-1.64-.54-11.5-1.29-26.24-.19-3.58-.42-7.48-.46-12.82v-16.1c0-7.72.07-7.45,0-8.62-.2-4.56-.7-4.44-1.09-9.9,0-.86-.12-1.6-.12-2.3l-8.7.31a72.83,72.83,0,0,1-.46,11.27c-.59,5.53-1.13,6.2-1.95,11.89-.24,1.32-.55,3.7-1.33,15.9-.43,6-.62,9.44-.89,14.78-.67,13.29-1,20-.9,27.6,0,1.68.08,3.43.12,5.15,1-.9,3-2.62,3.62-3.28,1.25-1.25,1.6-1.56,2.3-2.18a27.55,27.55,0,0,1,2.73-2c1.44-.9,2.5-1.44,4.41-2.46A15.06,15.06,0,0,1,175.1,430.73Z" transform="translate(-138.07 -307.86)"/><line class="cls-2" x1="37.66" y1="185.42" x2="37.66" y2="153.81"/><path class="cls-2" d="M175.69,493.28l-.26-15.81c0-2.63-.12-5.26-.08-7.9s.13-5.27.34-7.9h.08c.21,2.63.27,5.27.33,7.9s0,5.27-.07,7.9l-.26,15.81Z" transform="translate(-138.07 -307.86)"/><path class="cls-2" d="M159,506.41a10,10,0,0,1,5.73-8.39,24.42,24.42,0,0,0-3.39,3.84A23.8,23.8,0,0,0,159,506.41Z" transform="translate(-138.07 -307.86)"/><path class="cls-2" d="M184.61,491.66a10.6,10.6,0,0,1-.5-2.86,6.49,6.49,0,0,1,.53-2.95,4.24,4.24,0,0,1,.94-1.25,4.09,4.09,0,0,1,1.35-.75,5.84,5.84,0,0,1,2.93-.12,8.77,8.77,0,0,0-2.71.67,3.57,3.57,0,0,0-1.83,1.78,7.63,7.63,0,0,0-.63,2.63C184.6,489.74,184.63,490.69,184.61,491.66Z" transform="translate(-138.07 -307.86)"/><path class="cls-3" d="M197.65,429.82c.08-.66,0-1.25-1.09-4.44s-1.64-4.68-2.22-5.31a6.35,6.35,0,0,0-6.16-1.94c-.47.11-2,.54-2.46,1.75s.82,1.95,1.33,4.41c.39,1.79.23,3.66-.2,3.74-.66.15-1.36-4-2.65-4-.89,0-2.1,2-2.1,3.94a3.76,3.76,0,0,0,.35,1.6c.78,1.6,2.45,1.13,3.94,2.84.77.9,1.28,2.15,1.32,6.86,0,3.63-.23,4.84-.43,8.62-.31,5.85.24,5.85-.23,9.47a42.05,42.05,0,0,1-2,8.39c-1.09,3.58-3,8.77-3.74,8.61a68.85,68.85,0,0,0-11.39,31.11c.43-.93,2.07-1.68,4.56-2.88,2.77-1.29,3.59-1.17,7.06-2.62,3.9-1.67,4.72-2.61,5.07-3.11a14,14,0,0,0,1.56-4.18c.54-2,.43-2.22,1.09-5.06.39-1.64.74-2.89,1.09-4.21.47-1.68.86-2.93,1.13-3.75.66-2.18.9-2.76,1.52-4.87.59-1.79.55-1.75,1.33-4.41,1.25-4.13,1.32-4.09,1.56-5.06a44.09,44.09,0,0,0,.66-6.4,56.54,56.54,0,0,0,.2-5.73c-.08-2.84-.36-3-.67-6.86-.19-2.77,0-2.22-.19-6.39s-.39-4.64,0-6C196.52,431.89,197.5,431.65,197.65,429.82Z" transform="translate(-138.07 -307.86)"/><path class="cls-4" d="M181.2,469.78c0-.9,0-1.95-.08-3.12L181,465c0-.47-.12-.94-.16-1.49a7.28,7.28,0,0,1-.16-1.05c-.11-.86-.19-1.71-.23-2.57v-.08c-.19-2.53-.27-4.83-.27-6.7l-33.45,1.63c0,.63.08,1.17.12,1.72.07,1.09.11,2,.19,2.92,0,.43,0,.82.08,1.21,0,.74.08,1.44.12,2.11v.07l0,.59v.43c0,1.4,0,2.77-.11,4.4-.08.82-.12,1.72-.24,2.69a49.63,49.63,0,0,1-1.21,7.8.3.3,0,0,1,0,.16,43.69,43.69,0,0,1-2.27,7c-.11.24-.19.47-.31.7a.15.15,0,0,1,0,.12,52.87,52.87,0,0,1,7.84,27.64c5.85-8.22,12.28-9.94,19-8.38a1.61,1.61,0,0,1,.07-.43,68.85,68.85,0,0,1,11.39-31.11C181,474.3,181.2,472.78,181.2,469.78Z" transform="translate(-138.07 -307.86)"/><path class="cls-3" d="M181,465l.15,1.67C181.08,466,181,465.49,181,465Z" transform="translate(-138.07 -307.86)"/><path class="cls-4" d="M180.65,413.92c0-6.59,0-8.7,0-10.37,0-.82,0-1.56,0-2.66-.11-3.47-.15-5.84-.35-8,0-.27,0-.5-.07-.78l-.24-1.79c0-.43-.12-.86-.19-1.33l-.47-2.18-.39-1.56c-.08-.35-.16-.7-.23-1.09-.24-.9-.47-1.91-.71-3.31a2.38,2.38,0,0,1-.07-.59s0-.08,0-.11a56.87,56.87,0,0,1-.67-6.59c0-.67-.08-1.41-.11-2.19,0-.5,0-1,0-1.44l-.08-1.25-11,0c0,.43,0,.86,0,1.33,0,.93,0,3,0,5.85,0,.46,0,.93,0,1.4,0,2.22-.15,4.79-.35,7.68,0,.58-.07,1.13-.11,1.71-.12,2.15-.31,4.37-.59,6.75-.08.9-.19,1.71-.27,2.46-.12,1.09-.23,2.06-.35,3l-.9,7.52a1.87,1.87,0,0,0,0,.47l-.39,5.77a7.31,7.31,0,0,0,0,.94l-.15,7.21v.15c0,2,0,3.32,0,3.82a17.7,17.7,0,0,1,2.65.78,29.41,29.41,0,0,1,3.35,1.6c1.91,1,2.61,1.48,4,2.22,1.13.63,5.54,2.66,7.64,3.51h0V432c0-2.54.08-4.18.16-7.18,0-.43,0-.89,0-1.4v-9.47Z" transform="translate(-138.07 -307.86)"/><path class="cls-5" d="M180.65,423.39c.08-2.22,0-2,0-7.56Z" transform="translate(-138.07 -307.86)"/><path class="cls-4" d="M180.23,449.66c.11-4.75.46-5.14.42-9.7,0-2.85-.15-2.85-.19-6.2l0,1s-31.77-1.71-31.11-2.37h-3.7c.19,9.47.89,19.8,1.09,22.37l33.45-1.63C180.15,451.73,180.19,450.56,180.23,449.66Z" transform="translate(-138.07 -307.86)"/><path class="cls-4" d="M180.46,433.76v-.94h0c-2.1-.85-6.51-2.88-7.64-3.51-1.37-.74-2.07-1.2-4-2.22a29.41,29.41,0,0,0-3.35-1.6,17.7,17.7,0,0,0-2.65-.78q.06.24,0,.24s0-.08,0-.24a5.4,5.4,0,0,0-2.18.12,15.67,15.67,0,0,0-1.84.9c-1.91,1-3,1.56-4.4,2.45a29.26,29.26,0,0,0-2.73,2c-.7.63-1.05.94-2.3,2.19-.66.66,31.11,2.37,31.11,2.37Z" transform="translate(-138.07 -307.86)"/><path class="cls-5" d="M180,390.29l.24,1.79C180.15,391.5,180.11,390.91,180,390.29Z" transform="translate(-138.07 -307.86)"/><path class="cls-5" d="M179.33,386.78l.47,2.18C179.64,388.11,179.48,387.41,179.33,386.78Z" transform="translate(-138.07 -307.86)"/><path class="cls-6" d="M179.33,521.59c.08-1.87.19-6.7-2.85-10.37-2.45-2.88-5.53-3.43-6.39-4.56-2.5-.43-8.38-1.52-11.62.82a39,39,0,0,0-3.86,3.47c-1,1-2.8,3.31-3.35,3.94,0,.58-.39,1.52-.39,2.06v6.63a19.42,19.42,0,0,0,2.22,6.39,13.41,13.41,0,0,0,5.73,5.77,13.91,13.91,0,0,0,5.5,1.29,12.94,12.94,0,0,0,7.76-1.29,12.8,12.8,0,0,0,4.83-5.53A18.5,18.5,0,0,0,179.33,521.59Z" transform="translate(-138.07 -307.86)"/><path class="cls-5" d="M178.94,385.22l.39,1.56C179.21,386.24,179.09,385.73,178.94,385.22Z" transform="translate(-138.07 -307.86)"/><path class="cls-5" d="M177.15,355.63v-1.95c0-.93,0-1.71,0-2.45Z" transform="translate(-138.07 -307.86)"/><path class="cls-4" d="M177.11,360.08c0-1.25,0-2.69,0-4.45l0-4.4c0-1.17,0-2.11-.08-2.89l-.08-1.71c-.08-1.17-.12-1.72-.12-2.15l-11.65-.43c0,.67,0,1.33-.08,2s-.08,1.13-.12,1.68v.51c-.08.85-.08,1.63-.08,2.33l.08,3.32a3.44,3.44,0,0,0,0,.66l.59,5.42,0,1a.89.89,0,0,1,0,.28c.2,1.91.35,4.25.39,7.48l11,0v-1.59c0-1.53,0-2.81,0-4.41Z" transform="translate(-138.07 -307.86)"/><path class="cls-5" d="M177,368.65l.08,1.25c0-1.09-.08-2-.08-2.84Z" transform="translate(-138.07 -307.86)"/><path class="cls-5" d="M177.07,362.65c0-.78,0-1.6,0-2.57Z" transform="translate(-138.07 -307.86)"/><path class="cls-5" d="M177,346.63l.08,1.71C177,347.64,177,347.09,177,346.63Z" transform="translate(-138.07 -307.86)"/><path class="cls-5" d="M176.91,343.08c.31-2.77.86-4.76-.23-7.06-.7-1.48-1.56-2-2.19-4a12.55,12.55,0,0,1-.46-4.21c0-4,0-6,.23-7.72.66-5.62,1.83-6.55.9-8.38s-3-2.46-4.88-3.08c-.74-.24-5.53-1.8-7.29.23-.85,1-.46,2.34-.19,4.64.74,6.08-.74,6.43-.23,12.32a17.92,17.92,0,0,0,.54,3.39,43.41,43.41,0,0,1,1.68,6.55,39.92,39.92,0,0,1,.39,8.26l11.65.43A6.16,6.16,0,0,1,176.91,343.08Z" transform="translate(-138.07 -307.86)"/><path class="cls-3" d="M170.09,506.66a1.25,1.25,0,0,1-.23-.74c-6.71-1.56-13.14.16-19,8.38.31,0,.39.24.39.59.55-.63,2.38-2.93,3.35-3.94a39,39,0,0,1,3.86-3.47C161.71,505.14,167.59,506.23,170.09,506.66Z" transform="translate(-138.07 -307.86)"/><path class="cls-5" d="M165.65,360.93l0-1-.59-5.42C165.18,356.69,165.41,358.4,165.65,360.93Z" transform="translate(-138.07 -307.86)"/><path class="cls-5" d="M165,353.88l-.08-3.32A31.18,31.18,0,0,0,165,353.88Z" transform="translate(-138.07 -307.86)"/><path class="cls-5" d="M163.46,406.35l.9-7.52C164,401.36,163.7,403.31,163.46,406.35Z" transform="translate(-138.07 -307.86)"/><path class="cls-5" d="M163,412.59l.39-5.77c-.08.66-.15,1.4-.19,2.22C163.15,410.29,163.07,411.46,163,412.59Z" transform="translate(-138.07 -307.86)"/><path class="cls-5" d="M162.84,420.74l.15-7.21C162.88,416.41,162.84,418.87,162.84,420.74Z" transform="translate(-138.07 -307.86)"/><path class="cls-5" d="M162.57,336.69a14,14,0,0,0-.08-7.37c-.74-2.77-2.15-4.88-3.43-5-3.36-.31-8.81,8.93-8.62,17.42,0,2.34.47,2.93.66,7.29,0,1.17.08,3,0,5.66l9.24.27.55,3.82c-.23-2.57-.62-3.31-.94-7.76-.39-5.81,0-7.95.47-9.51C161.16,338.83,161.94,338.75,162.57,336.69Z" transform="translate(-138.07 -307.86)"/><path class="cls-4" d="M146.27,407c-.55,10.65-.82,16.65-.7,23.47,0,.63,0,1.25,0,1.88h3.7c1.25-1.25,1.6-1.56,2.3-2.19a29.26,29.26,0,0,1,2.73-2c1.44-.89,2.49-1.44,4.4-2.45a15.67,15.67,0,0,1,1.84-.9,5.4,5.4,0,0,1,2.18-.12c-.12-.58-.19-2.22-.31-4.79-.12-2.77-.27-6.63-.51-11.35l-.12-3c-.11-2.22-.23-4.6-.35-7.09-.07-1.48-.15-3-.23-4.72l-.08-1.33v-.74c-.08-1.79-.15-3.78-.15-6v-16.1c0-1.52,0-2.73,0-3.7v-2.26l-.11-4.14c0-.23,0-.46-.08-.66L160.3,355l-9.24-.27c0,1.6-.19,3.47-.42,5.61s-.43,3.47-.67,4.72l-.11.58v.16l-1.17,6.43c0,.08,0,.16,0,.27l-.74,7.76a1.6,1.6,0,0,0,0,.43l-.35,5.26-.86,13v.27c-.08,1.13-.12,2.3-.2,3.59v.11Z" transform="translate(-138.07 -307.86)"/><path class="cls-5" d="M161.82,405.57l.12,3C161.9,407.6,161.86,406.63,161.82,405.57Z" transform="translate(-138.07 -307.86)"/><path class="cls-5" d="M161.16,392.43l.08,1.33c0-.66-.08-1.33-.08-2.07Z" transform="translate(-138.07 -307.86)"/><path class="cls-5" d="M161,363.59c0-1.76,0-1.95,0-2.66,0-.54-.08-1.05-.08-1.48Z" transform="translate(-138.07 -307.86)"/><path class="cls-3" d="M156.17,597.73c.43-.66.27-1.17.24-3.31-.16-3.67.19-3.79-.24-4.41-.89-1.4-2.45-.9-3.55-2.42a3.62,3.62,0,0,1-.54-1.75l-7.76.58a10.83,10.83,0,0,1-.08,2.5c-.19,1.6-.5,1.79-1.09,5.07a27.46,27.46,0,0,0-.66,7.48c.15,2.38.31,4.37,1.75,6.2a5.92,5.92,0,0,0,4,2.42,5.22,5.22,0,0,0,4.21-1.56,6.92,6.92,0,0,0,1.52-4.84c.08-2.26-.7-3.11,0-4.21S155.51,598.78,156.17,597.73Z" transform="translate(-138.07 -307.86)"/><path class="cls-3" d="M152.62,572.12a61,61,0,0,0,.24-6.83c0-1.75-.27-3.58-.66-7.29-.16-1.32-.24-2-.43-4-.28-2.5-.43-3.78-.47-4.64v-5.26a28.51,28.51,0,0,0,0-3.12c0-1.68-.08-2.54-.2-4.64,0-.55-.15-2.89-.23-4.84,0-1.6,0-1.67,0-6.39v-1.56a26.94,26.94,0,0,1,0-9.28A52.87,52.87,0,0,0,143,486.66c-1.87,4.29-3.35,5.93-4.28,10.68-.55,2.73-.47,4.45-.47,8.58.08,10.25-.28,7.25-.2,17.47.08,9,.12,13.64.86,18.94a58.14,58.14,0,0,1,1.33,7.29c.23,3-.08,4.29,0,8.38,0,2.07.19,3.67.46,6.87.59,7.25.9,10.91,1.52,13.68.94,4,1.84,5.73,2.07,7.87l7.76-.58c0-.31-.08-.66-.12-1.13a39.14,39.14,0,0,1,.24-7.06C152.27,576.72,152.51,574.46,152.62,572.12Z" transform="translate(-138.07 -307.86)"/><path class="cls-5" d="M149.86,365.77v-.16c-.35,1.8-.71,3.39-1.17,6.59Z" transform="translate(-138.07 -307.86)"/><path class="cls-5" d="M147.91,380.23l.74-7.76C148.49,373.45,148.26,375.16,147.91,380.23Z" transform="translate(-138.07 -307.86)"/><path class="cls-5" d="M147.52,385.92l.35-5.26C147.75,382.1,147.63,383.86,147.52,385.92Z" transform="translate(-138.07 -307.86)"/><path class="cls-5" d="M146.66,398.91l.86-13c-.08.71-.12,1.41-.16,2.19C147.05,392.51,146.85,395.51,146.66,398.91Z" transform="translate(-138.07 -307.86)"/><path class="cls-3" d="M147.24,463.78v-.43l0-.59C147.21,463.11,147.24,463.47,147.24,463.78Z" transform="translate(-138.07 -307.86)"/><path class="cls-5" d="M146.27,407l.19-4.13C146.39,404.32,146.31,405.69,146.27,407Z" transform="translate(-138.07 -307.86)"/></svg>